<svg xmlns="http://www.w3.org/2000/svg" width="157.9437mm" height="42.9157mm" viewBox="0 0 447.7144 121.6509"><title>LCC-logo--final</title><path d="M178.0729,429.7792l-44.79-23.6617V403.13c.0187-.0045.0374-.0109.0591-.0155,7.0562-1.7469,11.7934-6.1423,11.7934-11.7934a11.7939,11.7939,0,0,0-11.7934-11.7934,11.6161,11.6161,0,0,0-11.7592,10.3,1.6391,1.6391,0,0,0-.0249.2767c0,.0109-.0032.0217-.0032.0342a2.1231,2.1231,0,0,0,4.2462,0h.0124a6.613,6.613,0,0,1,1.8463-3.9727,7.8638,7.8638,0,0,1,5.6822-2.3934,7.5564,7.5564,0,0,1,7.5474,7.5488,5.9539,5.9539,0,0,1-1.9739,4.3286,14.2966,14.2966,0,0,1-6.5931,3.3446s-3.2234.9947-3.2793,1.015v.7382H129.04v5.37L84.2567,429.7792a7.0823,7.0823,0,0,0-4.0224,6.2292c0,3.9665,3.5841,7.1806,8.0042,7.1806h85.8524c4.42,0,8.0012-3.2141,8.0012-7.1806A7.0792,7.0792,0,0,0,178.0729,429.7792Zm-3.982,9.1636H88.2387c-2.036,0-3.7582-1.3428-3.7582-2.9344a2.8724,2.8724,0,0,1,1.722-2.4619l.0187-.0061.0187-.0124,44.92-23.7314,44.93,23.7314.0187.0124.0187.0061a2.8725,2.8725,0,0,1,1.7221,2.4619C177.8491,437.6,176.127,438.9428,174.0909,438.9428Z" transform="translate(-80.2343 -377.9952)" fill="#22d3ee"/><rect x="91.163" y="60.9476" width="289.6572" height="4.2462" fill="#22d3ee"/><path d="M350.5619,439.2641" transform="translate(-80.2343 -377.9952)" fill="#0284c7" stroke="#165b9d" stroke-miterlimit="10" stroke-width="4"/><path d="M365.8009,507.1929" transform="translate(-80.2343 -377.9952)" fill="#0284c7" stroke="#165b9d" stroke-miterlimit="10" stroke-width="4"/><path d="M472.1061,497.6385" transform="translate(-80.2343 -377.9952)" fill="#0284c7" stroke="#165b9d" stroke-miterlimit="10" stroke-width="4"/><path d="M498.8155,497.6385" transform="translate(-80.2343 -377.9952)" fill="#0284c7" stroke="#165b9d" stroke-miterlimit="10" stroke-width="4"/><path d="M499.4379,487.068" transform="translate(-80.2343 -377.9952)" fill="#0284c7" stroke="#165b9d" stroke-miterlimit="10" stroke-width="4"/><path d="M480.3711,487.0679" transform="translate(-80.2343 -377.9952)" fill="#0284c7" stroke="#165b9d" stroke-miterlimit="10" stroke-width="4"/><path d="M499.4379,487.068" transform="translate(-80.2343 -377.9952)" fill="#0284c7" stroke="#165b9d" stroke-miterlimit="10" stroke-width="4"/><path d="M472.1061,487.068" transform="translate(-80.2343 -377.9952)" fill="#0284c7" stroke="#165b9d" stroke-miterlimit="10" stroke-width="4"/><path d="M472.6826,404.8" transform="translate(-80.2343 -377.9952)" fill="#0284c7" stroke="#165b9d" stroke-miterlimit="10" stroke-width="4"/><path d="M479.2862,410.225" transform="translate(-80.2343 -377.9952)" fill="#0284c7" stroke="#165b9d" stroke-miterlimit="10" stroke-width="4"/><path d="M491.9441,389.4046" transform="translate(-80.2343 -377.9952)" fill="#0284c7" stroke="#165b9d" stroke-miterlimit="10" stroke-width="4"/><path d="M484.8918,379.9953" transform="translate(-80.2343 -377.9952)" fill="#0284c7" stroke="#165b9d" stroke-miterlimit="10" stroke-width="4"/><path d="M472.1061,396.3377" transform="translate(-80.2343 -377.9952)" fill="#0284c7" stroke="#165b9d" stroke-miterlimit="10" stroke-width="4"/><path d="M472.1061,379.9953" transform="translate(-80.2343 -377.9952)" fill="#0284c7" stroke="#165b9d" stroke-miterlimit="10" stroke-width="4"/><path d="M497.8365,499.646l-24.5185-.0068a3.22,3.22,0,0,1-3.2119-3.2129V377.9952h14.1758a3.2343,3.2343,0,0,1,2.5752,1.2876l6.3984,8.5371,12.585,6.1577a2.11,2.11,0,0,1,1.1826,2.0322l-6.0088,100.6226A3.2127,3.2127,0,0,1,497.8365,499.646Zm-23.73-4.0068,22.96.0068,5.89-98.6269L490.6324,390.99l-6.7412-8.9946h-9.7851Zm28.9248-99.8721-.001.0078Z" transform="translate(-80.2343 -377.9952)" fill="#0284c7"/><rect x="468.6517" y="385.485" width="19.6948" height="4.0003" transform="translate(-207.0932 121.9523) rotate(-49.5246)" fill="#0284c7"/><path d="M478.98,411.6226a3.19,3.19,0,0,1-2.0273-.7261l-.09-.0781-6.1162-5.666,2.7188-2.9346,5.34,4.9478,11.43-18.8,3.418,2.0781-11.9424,19.6435a3.193,3.193,0,0,1-2.7305,1.5352Z" transform="translate(-80.2343 -377.9952)" fill="#0284c7"/><rect x="391.8718" y="107.0728" width="27.332" height="4" fill="#0284c7"/><path d="M507.8932,498.0806a3.1995,3.1995,0,0,1-3.0625-2.2578l-.0361-.1338L498.6979,469.72l3.8945-.9141,5.8662,24.9883,15.3555-6.13-1.0205-4.502-19.7822-86.9448,3.9-.8877,20.9561,92.1236a3.1759,3.1759,0,0,1-1.9268,3.6689l-16.86,6.7305A3.1973,3.1973,0,0,1,507.8932,498.0806Z" transform="translate(-80.2343 -377.9952)" fill="#0284c7"/><rect x="504.5805" y="483.9626" width="20.9192" height="3.9997" transform="translate(-224.3491 -150.7614) rotate(-21.9053)" fill="#0284c7"/><path d="M192.9258,431.7988a2.092,2.092,0,0,1-1.57-.6445,2.2037,2.2037,0,0,1-.6236-1.5918V400.4512a2.1642,2.1642,0,0,1,.645-1.5908,2.1116,2.1116,0,0,1,1.5484-.6451,2.2032,2.2032,0,0,1,2.2358,2.2359v26.875h15.5659a2.2364,2.2364,0,1,1,0,4.4726Z" transform="translate(-80.2343 -377.9952)" fill="#22d3ee"/><path d="M217.0054,431.7988a2.0552,2.0552,0,0,1-1.8487-1.0322,2.2152,2.2152,0,0,1-.1294-2.1934L227.11,399.72a2.1829,2.1829,0,0,1,2.1074-1.5049,2.0883,2.0883,0,0,1,2.1069,1.5049l12.126,28.939a2.2735,2.2735,0,0,1-.15,2.1719,2.0774,2.0774,0,0,1-1.8706.9677,2.26,2.26,0,0,1-1.2256-.3652,2.0762,2.0762,0,0,1-.8384-1.0107l-10.664-26.4883h1.2041l-10.8365,26.4883a2.1639,2.1639,0,0,1-.8813,1.0322A2.2924,2.2924,0,0,1,217.0054,431.7988Zm2.2793-7.3965,1.72-3.6982H237.86l1.72,3.6982Z" transform="translate(-80.2343 -377.9952)" fill="#22d3ee"/><path d="M276.2163,432.2285a16.2,16.2,0,0,1-11.8037-4.9668,16.9717,16.9717,0,0,1-3.5259-5.4824,17.9588,17.9588,0,0,1-1.2685-6.7939,17.6832,17.6832,0,0,1,1.2685-6.73,17.0445,17.0445,0,0,1,3.5259-5.461,16.55,16.55,0,0,1,5.2676-3.6767,15.964,15.964,0,0,1,6.5361-1.333,16.845,16.845,0,0,1,5.6973.86,16.4036,16.4036,0,0,1,4.7944,2.8379,2.3823,2.3823,0,0,1,.5376.5376,1.633,1.633,0,0,1,.2583.5591,2.9986,2.9986,0,0,1,.0645.6665,1.7689,1.7689,0,0,1-.5806,1.3545,2.2365,2.2365,0,0,1-2.9888.0644,12.7624,12.7624,0,0,0-3.29-2.1074,11.5409,11.5409,0,0,0-4.4932-.731,11.2491,11.2491,0,0,0-4.7729,1.0323,12.5923,12.5923,0,0,0-3.9346,2.8379,13.09,13.09,0,0,0-2.6445,4.1923,14.3088,14.3088,0,0,0,0,10.2344,13.09,13.09,0,0,0,2.6445,4.1924,12.29,12.29,0,0,0,3.9346,2.8164,11.79,11.79,0,0,0,8.9223.2578,15.9839,15.9839,0,0,0,3.7627-2.0849,2.2609,2.2609,0,0,1,1.5264-.4942,1.9316,1.9316,0,0,1,1.2685.6016,2.0556,2.0556,0,0,1,.5162,1.4834,2.1511,2.1511,0,0,1-.1724.8389,2.3429,2.3429,0,0,1-.5161.7519,17.2832,17.2832,0,0,1-4.9663,2.7959A16.4261,16.4261,0,0,1,276.2163,432.2285Z" transform="translate(-80.2343 -377.9952)" fill="#22d3ee"/><path d="M293.2437,431.7988a2.0552,2.0552,0,0,1-1.8487-1.0322,2.2149,2.2149,0,0,1-.1294-2.1934l12.083-28.853a2.1819,2.1819,0,0,1,2.1065-1.5049,2.0885,2.0885,0,0,1,2.1074,1.5049l12.126,28.939a2.2721,2.2721,0,0,1-.15,2.1719,2.0782,2.0782,0,0,1-1.8711.9677,2.2622,2.2622,0,0,1-1.2256-.3652,2.0779,2.0779,0,0,1-.8379-1.0107L304.94,403.9346h1.2041l-10.8355,26.4883a2.1707,2.1707,0,0,1-.8818,1.0322A2.2924,2.2924,0,0,1,293.2437,431.7988Zm2.2792-7.3965,1.72-3.6982h16.8559l1.72,3.6982Z" transform="translate(-80.2343 -377.9952)" fill="#22d3ee"/><path d="M327.041,431.7988a2.203,2.203,0,0,1-2.2363-2.2363V400.4512a2.1412,2.1412,0,0,1,.6455-1.6123,2.202,2.202,0,0,1,1.5908-.6236,2.1656,2.1656,0,0,1,1.9776,1.2041l13.4589,26.9615h-1.3759l13.1152-26.9615a2.1659,2.1659,0,0,1,1.9785-1.2041,2.2049,2.2049,0,0,1,1.5908.6236,2.1443,2.1443,0,0,1,.6446,1.6123v29.1113a2.132,2.132,0,0,1-.6661,1.5918,2.2252,2.2252,0,0,1-3.8056-1.5918V406.6436l.86-.2154-11.2666,22.9624a2.22,2.22,0,0,1-1.9345,1.1182,2.1526,2.1526,0,0,1-2.0645-1.333L328.417,406.8584l.86-.2148v22.9189a2.203,2.203,0,0,1-2.2363,2.2363Z" transform="translate(-80.2343 -377.9952)" fill="#22d3ee"/><path d="M369.2666,431.7988a2.203,2.203,0,0,1-2.2363-2.2363V400.4512a2.1412,2.1412,0,0,1,.6455-1.6123,2.2265,2.2265,0,0,1,3.8271,1.6123v29.1113a2.2065,2.2065,0,0,1-.624,1.5918A2.1442,2.1442,0,0,1,369.2666,431.7988Z" transform="translate(-80.2343 -377.9952)" fill="#22d3ee"/><path d="M395.1514,432.2285a16.2,16.2,0,0,1-11.8028-4.9668,16.95,16.95,0,0,1-3.5263-5.4824,17.9588,17.9588,0,0,1-1.2686-6.7939,17.6833,17.6833,0,0,1,1.2686-6.73,17.022,17.022,0,0,1,3.5263-5.461,16.54,16.54,0,0,1,5.2676-3.6767,15.96,15.96,0,0,1,6.5352-1.333,16.8546,16.8546,0,0,1,5.6982.86,16.4084,16.4084,0,0,1,4.794,2.8379,2.3868,2.3868,0,0,1,.538.5376,1.6316,1.6316,0,0,1,.2579.5591,3.0051,3.0051,0,0,1,.0644.6665,1.7661,1.7661,0,0,1-.581,1.3545,2.2359,2.2359,0,0,1-2.9883.0644,12.7706,12.7706,0,0,0-3.2891-2.1074,11.5457,11.5457,0,0,0-4.4941-.731,11.249,11.249,0,0,0-4.7725,1.0323,12.5946,12.5946,0,0,0-3.9346,2.8379A13.0826,13.0826,0,0,0,383.8,409.89a14.3088,14.3088,0,0,0,0,10.2344,13.0831,13.0831,0,0,0,2.6445,4.1924,12.2925,12.2925,0,0,0,3.9346,2.8164,11.7892,11.7892,0,0,0,8.9219.2578,15.974,15.974,0,0,0,3.7627-2.0849,2.2624,2.2624,0,0,1,1.5263-.4942,1.9288,1.9288,0,0,1,1.2686.6016,2.0519,2.0519,0,0,1,.5166,1.4834,2.1487,2.1487,0,0,1-.1719.8389,2.3509,2.3509,0,0,1-.5166.7519,17.286,17.286,0,0,1-4.9658,2.7959A16.4333,16.4333,0,0,1,395.1514,432.2285Z" transform="translate(-80.2343 -377.9952)" fill="#22d3ee"/><path d="M415.749,431.7988a2.203,2.203,0,0,1-2.2363-2.2363V400.4512a2.1412,2.1412,0,0,1,.6455-1.6123,2.2266,2.2266,0,0,1,3.8272,1.6123v29.1113a2.2062,2.2062,0,0,1-.6241,1.5918A2.1442,2.1442,0,0,1,415.749,431.7988Z" transform="translate(-80.2343 -377.9952)" fill="#22d3ee"/><path d="M425.251,431.7988a2.0552,2.0552,0,0,1-1.8487-1.0322,2.2139,2.2139,0,0,1-.1289-2.1934l12.083-28.853a2.1819,2.1819,0,0,1,2.1065-1.5049A2.0885,2.0885,0,0,1,439.57,399.72l12.126,28.939a2.2721,2.2721,0,0,1-.15,2.1719,2.0781,2.0781,0,0,1-1.8711.9677,2.2622,2.2622,0,0,1-1.2256-.3652,2.0779,2.0779,0,0,1-.8379-1.0107l-10.664-26.4883h1.2041l-10.836,26.4883a2.17,2.17,0,0,1-.8818,1.0322A2.2924,2.2924,0,0,1,425.251,431.7988Zm2.2793-7.3965,1.72-3.6982h16.8564l1.72,3.6982Z" transform="translate(-80.2343 -377.9952)" fill="#22d3ee"/><path d="M104.354,487.0615a17.7185,17.7185,0,0,1-12.9014-5.4287,18.5454,18.5454,0,0,1-3.854-5.9922,19.6235,19.6235,0,0,1-1.3867-7.4258,19.3231,19.3231,0,0,1,1.3867-7.3554,18.6308,18.6308,0,0,1,3.854-5.9688,18.08,18.08,0,0,1,5.7574-4.0185,17.4518,17.4518,0,0,1,7.144-1.4571,18.4259,18.4259,0,0,1,6.2275.9395,17.9519,17.9519,0,0,1,5.2408,3.1025,2.6084,2.6084,0,0,1,.5874.5869,1.7859,1.7859,0,0,1,.2817.6114,3.2547,3.2547,0,0,1,.0708.7285,1.93,1.93,0,0,1-.6348,1.4805,2.4414,2.4414,0,0,1-3.2661.07,13.9839,13.9839,0,0,0-3.5957-2.3028,12.6151,12.6151,0,0,0-4.9116-.7988,12.2971,12.2971,0,0,0-5.2168,1.1279,13.7846,13.7846,0,0,0-4.3008,3.1016,14.3059,14.3059,0,0,0-2.89,4.583,15.6394,15.6394,0,0,0,0,11.1856,14.307,14.307,0,0,0,2.89,4.583,13.4538,13.4538,0,0,0,4.3008,3.0781,12.8942,12.8942,0,0,0,9.7524.2822,17.4643,17.4643,0,0,0,4.1124-2.2793,2.4709,2.4709,0,0,1,1.6684-.541,2.1113,2.1113,0,0,1,1.3867.6582,2.2464,2.2464,0,0,1,.564,1.6211,2.3455,2.3455,0,0,1-.188.917,2.57,2.57,0,0,1-.564.8223,18.872,18.872,0,0,1-5.4287,3.0546A17.9285,17.9285,0,0,1,104.354,487.0615Z" transform="translate(-80.2343 -377.9952)" fill="#0284c7"/><path d="M141.39,487.0615a20.0232,20.0232,0,0,1-7.5668-1.3857,17.1629,17.1629,0,0,1-5.8985-3.9014,17.6652,17.6652,0,0,1-3.8305-5.9687,21.7491,21.7491,0,0,1,0-15.1582,17.7371,17.7371,0,0,1,3.8305-5.9454,17.1616,17.1616,0,0,1,5.8985-3.9,21.2732,21.2732,0,0,1,15.11,0,17.3263,17.3263,0,0,1,9.7524,9.8457,21.7491,21.7491,0,0,1,0,15.1582,17.2825,17.2825,0,0,1-9.7524,9.87A19.8519,19.8519,0,0,1,141.39,487.0615Zm0-4.4179a14.0393,14.0393,0,0,0,5.6167-1.1045,13.4156,13.4156,0,0,0,7.3321-7.6377,16.5131,16.5131,0,0,0,0-11.3741,13.5172,13.5172,0,0,0-2.8906-4.582,13.273,13.273,0,0,0-4.4415-3.0312,15.1309,15.1309,0,0,0-11.2334,0,13.0078,13.0078,0,0,0-4.4179,3.0312,13.98,13.98,0,0,0-2.89,4.582,16.1551,16.1551,0,0,0,0,11.3741,13.9548,13.9548,0,0,0,2.89,4.583,13.2649,13.2649,0,0,0,4.4179,3.0547A14.0352,14.0352,0,0,0,141.39,482.6436Z" transform="translate(-80.2343 -377.9952)" fill="#0284c7"/><path d="M170.1064,486.5918a2.2865,2.2865,0,0,1-1.7158-.7051,2.4039,2.4039,0,0,1-.6811-1.7392V452.3291a2.3837,2.3837,0,0,1,.6811-1.7627,2.3264,2.3264,0,0,1,1.7158-.6816,2.36,2.36,0,0,1,1.88.8925l20.4922,27.2608v-25.709a2.3434,2.3434,0,0,1,.7046-1.7627,2.4073,2.4073,0,0,1,1.7393-.6816,2.308,2.308,0,0,1,1.7387.6816,2.4326,2.4326,0,0,1,.6582,1.7627v31.8184a2.4532,2.4532,0,0,1-.6582,1.7392,2.2682,2.2682,0,0,1-1.7387.7051,2.771,2.771,0,0,1-1.0108-.2119,1.9934,1.9934,0,0,1-.8691-.6338L172.55,458.4854v25.6621a2.4064,2.4064,0,0,1-.6816,1.7392A2.3443,2.3443,0,0,1,170.1064,486.5918Z" transform="translate(-80.2343 -377.9952)" fill="#0284c7"/><path d="M219.3145,486.5918a2.32,2.32,0,0,1-2.209-1.5508l-13.771-31.49a3.1407,3.1407,0,0,1-.1411-2.6319,1.9956,1.9956,0,0,1,1.9741-1.0341,2.2436,2.2436,0,0,1,2.2558,1.457l12.0791,28.999h-.517l12.3139-28.999a2.4946,2.4946,0,0,1,.87-1.1514,2.5371,2.5371,0,0,1,1.34-.3056,2.0141,2.0141,0,0,1,1.95,1.0107,2.3953,2.3953,0,0,1-.0235,2.2324L221.5234,485.041a2.774,2.774,0,0,1-.8691,1.1514A2.1915,2.1915,0,0,1,219.3145,486.5918Z" transform="translate(-80.2343 -377.9952)" fill="#0284c7"/><path d="M243.8018,486.5918a2.4075,2.4075,0,0,1-2.4439-2.4443V452.3291a2.3434,2.3434,0,0,1,.7046-1.7627,2.4073,2.4073,0,0,1,1.7393-.6816h21.2441a2.4014,2.4014,0,0,1,1.7388.6347,2.2134,2.2134,0,0,1,.6582,1.668,2.0812,2.0812,0,0,1-.6582,1.5986,2.4543,2.4543,0,0,1-1.7388.61h-18.8v11.4209h13.4893a2.401,2.401,0,0,1,1.7387.6347,2.3267,2.3267,0,0,1,0,3.2432,2.4007,2.4007,0,0,1-1.7387.6348H246.2456v11.75h18.8a2.4591,2.4591,0,0,1,1.7388.61,2.0829,2.0829,0,0,1,.6582,1.5987,2.2117,2.2117,0,0,1-.6582,1.6679,2.4011,2.4011,0,0,1-1.7388.6348Z" transform="translate(-80.2343 -377.9952)" fill="#0284c7"/><path d="M276.6548,486.5918a2.2863,2.2863,0,0,1-1.7158-.7051,2.404,2.404,0,0,1-.6812-1.7392V452.3291a2.3837,2.3837,0,0,1,.6812-1.7627,2.3263,2.3263,0,0,1,1.7158-.6816,2.36,2.36,0,0,1,1.88.8925l20.4917,27.2608v-25.709a2.3437,2.3437,0,0,1,.705-1.7627,2.4066,2.4066,0,0,1,1.7393-.6816,2.31,2.31,0,0,1,1.7393.6816,2.4323,2.4323,0,0,1,.6572,1.7627v31.8184a2.4529,2.4529,0,0,1-.6572,1.7392,2.27,2.27,0,0,1-1.7393.7051,2.7721,2.7721,0,0,1-1.0107-.2119,1.9938,1.9938,0,0,1-.8692-.6338l-20.4922-27.2607v25.6621a2.4064,2.4064,0,0,1-.6816,1.7392A2.3442,2.3442,0,0,1,276.6548,486.5918Z" transform="translate(-80.2343 -377.9952)" fill="#0284c7"/><path d="M315.71,486.5918a2.4083,2.4083,0,0,1-2.4434-2.4443V452.3291a2.34,2.34,0,0,1,.7051-1.7627,2.4332,2.4332,0,0,1,4.1826,1.7627v31.8184a2.4064,2.4064,0,0,1-.6816,1.7392A2.3438,2.3438,0,0,1,315.71,486.5918Z" transform="translate(-80.2343 -377.9952)" fill="#0284c7"/><path d="M329.998,486.5918a2.4083,2.4083,0,0,1-2.4433-2.4443V452.3291a2.34,2.34,0,0,1,.7051-1.7627,2.404,2.404,0,0,1,1.7382-.6816h21.2442a2.4022,2.4022,0,0,1,1.7392.6347,2.213,2.213,0,0,1,.6582,1.668,2.0809,2.0809,0,0,1-.6582,1.5986,2.4551,2.4551,0,0,1-1.7392.61h-18.8v11.4209h13.4892a2.4026,2.4026,0,0,1,1.7393.6347,2.3292,2.3292,0,0,1,0,3.2432,2.4023,2.4023,0,0,1-1.7393.6348H332.4424v11.75h18.8a2.46,2.46,0,0,1,1.7392.61,2.0826,2.0826,0,0,1,.6582,1.5987,2.2113,2.2113,0,0,1-.6582,1.6679,2.4019,2.4019,0,0,1-1.7392.6348Z" transform="translate(-80.2343 -377.9952)" fill="#0284c7"/><path d="M362.8506,486.5918a2.2837,2.2837,0,0,1-1.7149-.7051,2.4027,2.4027,0,0,1-.6816-1.7392V452.3291a2.3825,2.3825,0,0,1,.6816-1.7627,2.3236,2.3236,0,0,1,1.7149-.6816,2.3593,2.3593,0,0,1,1.88.8925l20.4922,27.2608v-25.709a2.3437,2.3437,0,0,1,.705-1.7627,2.4066,2.4066,0,0,1,1.7393-.6816,2.3092,2.3092,0,0,1,1.7392.6816,2.432,2.432,0,0,1,.6573,1.7627v31.8184a2.4525,2.4525,0,0,1-.6573,1.7392,2.2693,2.2693,0,0,1-1.7392.7051,2.773,2.773,0,0,1-1.0108-.2119,1.994,1.994,0,0,1-.8691-.6338l-20.4922-27.2607v25.6621a2.4064,2.4064,0,0,1-.6816,1.7392A2.3438,2.3438,0,0,1,362.8506,486.5918Z" transform="translate(-80.2343 -377.9952)" fill="#0284c7"/><path d="M397.7246,454.3965a2.2564,2.2564,0,1,1,0-4.5117H422.87a2.2565,2.2565,0,1,1,0,4.5117ZM410.32,486.5918a2.4081,2.4081,0,0,1-2.4433-2.4443V449.8848h4.8876v34.2627a2.4081,2.4081,0,0,1-2.4443,2.4443Z" transform="translate(-80.2343 -377.9952)" fill="#0284c7"/><path d="M432.9736,486.5918a2.4083,2.4083,0,0,1-2.4433-2.4443V452.3291a2.34,2.34,0,0,1,.7051-1.7627,2.404,2.404,0,0,1,1.7382-.6816h21.2442a2.4022,2.4022,0,0,1,1.7392.6347,2.213,2.213,0,0,1,.6582,1.668,2.0809,2.0809,0,0,1-.6582,1.5986,2.4551,2.4551,0,0,1-1.7392.61h-18.8v11.4209h13.4892a2.4026,2.4026,0,0,1,1.7393.6347,2.3292,2.3292,0,0,1,0,3.2432,2.4023,2.4023,0,0,1-1.7393.6348H435.418v11.75h18.8a2.46,2.46,0,0,1,1.7392.61,2.0826,2.0826,0,0,1,.6582,1.5987,2.2113,2.2113,0,0,1-.6582,1.6679,2.4019,2.4019,0,0,1-1.7392.6348Z" transform="translate(-80.2343 -377.9952)" fill="#0284c7"/></svg>