<svg xmlns="http://www.w3.org/2000/svg" xmlns:xlink="http://www.w3.org/1999/xlink" viewBox="0 0 435.603 153.82"><defs><linearGradient id="linear-gradient" x1="-1229.624" y1="1268.657" x2="-1228.624" y2="1268.657" gradientTransform="matrix(112.1641 0 0 -112.1641 138164.501 142427.138)" gradientUnits="userSpaceOnUse"><stop offset="0" stop-color="#001c83"/><stop offset="1" stop-color="#d1cbe5"/></linearGradient><linearGradient id="linear-gradient-2" x1="-1050.737" y1="1406.982" x2="-1049.737" y2="1406.982" gradientTransform="matrix(0 -3.854 -3.854 0 5551.221 -3924.912)" xlink:href="#linear-gradient"/><clipPath id="clip-path"><path class="cls-1" d="M244.778 127.384h112.164v4.076H244.778z"/></clipPath><clipPath id="clip-path-2"><path class="cls-1" d="M72.631 120.448h112.166v4.074H72.631z"/></clipPath><style>.cls-1,.cls-3{fill:none}.cls-2{fill:#001c83}.cls-3{stroke:#001c83;stroke-miterlimit:22.926;stroke-width:1.37px}.cls-4{fill:#00ae52}</style></defs><g id="Livello_2" data-name="Livello 2"><g id="Livello_1-2" data-name="Livello 1"><path class="cls-2" d="M61.405 69.385a52.665 52.665 0 01-3.23.103h-2.491a21.697 21.697 0 01-5.02-.456 6.26 6.26 0 01-3.099-1.64 6.482 6.482 0 01-1.567-3.183 23.416 23.416 0 01-.437-5.129V39.063a4.972 4.972 0 00-.459-2.353 2.537 2.537 0 00-1.313-1.2 5.258 5.258 0 00-2.037-.333h-2.169v25.277a16.667 16.667 0 001.545 7.586 10.336 10.336 0 004.839 4.725 19.128 19.128 0 008.465 1.637h3.744a25.233 25.233 0 004.5-.33 7.677 7.677 0 002.651-.905 3.142 3.142 0 001.27-1.344 3.96 3.96 0 00.318-1.65v-1.542a22.779 22.779 0 01-2.49.445c-.934.136-1.945.233-3.02.31"/><path class="cls-3" d="M61.405 69.385a52.665 52.665 0 01-3.23.103h-2.491a21.697 21.697 0 01-5.02-.456 6.26 6.26 0 01-3.099-1.64 6.482 6.482 0 01-1.567-3.183 23.416 23.416 0 01-.437-5.129V39.063a4.972 4.972 0 00-.459-2.353 2.537 2.537 0 00-1.313-1.2 5.258 5.258 0 00-2.037-.333h-2.169v25.277a16.667 16.667 0 001.545 7.586 10.336 10.336 0 004.839 4.725 19.128 19.128 0 008.465 1.637h3.744a25.233 25.233 0 004.5-.33 7.677 7.677 0 002.651-.905 3.142 3.142 0 001.27-1.344 3.96 3.96 0 00.318-1.65v-1.542a22.779 22.779 0 01-2.49.445c-.934.136-1.944.233-3.02.309z"/><path class="cls-2" d="M101.753 60.91q-1.151-3.36-2.43-6.527-1.273-3.175-2.565-5.978-1.282-2.804-2.487-5.06c-.797-1.493-1.522-2.756-2.19-3.766a16.04 16.04 0 00-1.862-2.42 6.546 6.546 0 00-1.925-1.448 5.316 5.316 0 00-2.256-.474h-1.974a26.476 26.476 0 00-2.66 3.44q-1.36 2.058-2.717 4.575a97.664 97.664 0 00-2.636 5.287 119.555 119.555 0 00-2.455 5.604q-1.165 2.834-2.125 5.52a112.77 112.77 0 00-1.685 5.023 55.737 55.737 0 00-1.097 4.116 13.807 13.807 0 00-.391 2.805 2.516 2.516 0 00.632 1.923 2.91 2.91 0 002.063.59h2.299c.215-1.087.492-2.232.799-3.459.302-1.219.634-2.419.964-3.603.328-1.19.65-2.267.93-3.23h20.893c.177.637.394 1.375.643 2.202.257.829.507 1.697.773 2.612.25.925.492 1.83.686 2.734a3.207 3.207 0 001.26 2.04 4.896 4.896 0 002.88.704h2.17q-.574-3.16-1.477-6.506a115.288 115.288 0 00-2.06-6.704m-24.39-1.254q1.133-3.593 2.421-6.875a71.188 71.188 0 012.892-6.44 69.903 69.903 0 013.692-6.418 71.272 71.272 0 013.523 6.207q1.614 3.155 2.957 6.517a109.049 109.049 0 012.52 7.01z"/><path class="cls-3" d="M101.753 60.91q-1.151-3.36-2.43-6.527-1.273-3.175-2.565-5.978-1.282-2.804-2.487-5.06c-.797-1.493-1.522-2.756-2.19-3.766a16.04 16.04 0 00-1.862-2.42 6.546 6.546 0 00-1.925-1.448 5.316 5.316 0 00-2.256-.474h-1.974a26.476 26.476 0 00-2.66 3.44q-1.36 2.058-2.717 4.575a97.664 97.664 0 00-2.636 5.287 119.555 119.555 0 00-2.455 5.604q-1.165 2.834-2.125 5.52a112.77 112.77 0 00-1.685 5.023 55.737 55.737 0 00-1.097 4.116 13.807 13.807 0 00-.391 2.805 2.516 2.516 0 00.632 1.923 2.91 2.91 0 002.063.59h2.299c.215-1.087.492-2.232.799-3.459.302-1.219.634-2.419.964-3.603.328-1.19.65-2.267.93-3.23h20.893c.177.637.394 1.375.643 2.202.257.829.507 1.697.773 2.612.25.925.492 1.83.686 2.734a3.207 3.207 0 001.26 2.04 4.896 4.896 0 002.88.704h2.17q-.574-3.16-1.477-6.506a115.359 115.359 0 00-2.06-6.704zm-24.39-1.254q1.133-3.593 2.421-6.875a71.188 71.188 0 012.892-6.44 69.903 69.903 0 013.692-6.418 71.272 71.272 0 013.523 6.207q1.614 3.155 2.957 6.517a109.049 109.049 0 012.52 7.01z"/><path class="cls-2" d="M142.917 35.542a2.954 2.954 0 00-1.357-.306h-2.893a76.17 76.17 0 01-1.531 6.506 110.408 110.408 0 01-2.201 6.956c-.824 2.368-1.7 4.686-2.652 6.96a120.317 120.317 0 01-2.912 6.51 91.877 91.877 0 01-2.987 5.605 58.162 58.162 0 01-3.07-5.452 97.294 97.294 0 01-2.803-6.2 127.823 127.823 0 01-2.445-6.419q-1.11-3.189-1.957-6.09a80.922 80.922 0 01-1.358-5.234 3.577 3.577 0 00-.966-1.735 4.85 4.85 0 00-1.62-1.058 4.746 4.746 0 00-1.748-.349h-2.63c.593 2.972 1.371 6.043 2.312 9.215q1.426 4.76 3.328 9.528 1.905 4.78 4.258 9.314a80.072 80.072 0 005.082 8.541 6.79 6.79 0 001.992 1.97 3.566 3.566 0 001.885.602h1.51c.787-1.103 1.656-2.487 2.621-4.126q1.423-2.458 2.988-5.478a161.68 161.68 0 003.094-6.37q1.552-3.328 2.926-6.746 1.383-3.404 2.466-6.65 1.087-3.251 1.741-6.083a7.667 7.667 0 00.154-.848 7.908 7.908 0 00.045-.81 1.614 1.614 0 00-.352-.991 2.372 2.372 0 00-.92-.762"/><path class="cls-3" d="M142.917 35.542a2.954 2.954 0 00-1.357-.306h-2.893a76.17 76.17 0 01-1.531 6.506 110.408 110.408 0 01-2.201 6.956c-.824 2.368-1.7 4.686-2.652 6.96a120.317 120.317 0 01-2.912 6.51 91.877 91.877 0 01-2.987 5.605 58.162 58.162 0 01-3.07-5.452 97.294 97.294 0 01-2.803-6.2 127.823 127.823 0 01-2.445-6.419q-1.11-3.189-1.957-6.09a80.922 80.922 0 01-1.358-5.234 3.577 3.577 0 00-.966-1.735 4.85 4.85 0 00-1.62-1.058 4.746 4.746 0 00-1.748-.349h-2.63c.593 2.972 1.371 6.043 2.312 9.215q1.426 4.76 3.328 9.528 1.905 4.78 4.258 9.314a80.072 80.072 0 005.082 8.541 6.79 6.79 0 001.992 1.97 3.566 3.566 0 001.885.602h1.51c.787-1.103 1.656-2.487 2.621-4.126q1.423-2.458 2.988-5.478a161.68 161.68 0 003.094-6.37q1.552-3.328 2.926-6.746 1.383-3.404 2.466-6.65 1.087-3.251 1.741-6.083a7.667 7.667 0 00.154-.848 7.908 7.908 0 00.045-.81 1.614 1.614 0 00-.352-.991 2.372 2.372 0 00-.92-.762z"/><path class="cls-2" d="M180.534 60.91q-1.15-3.36-2.427-6.527-1.27-3.175-2.565-5.978-1.285-2.804-2.487-5.06c-.801-1.493-1.525-2.756-2.19-3.766a15.973 15.973 0 00-1.862-2.42 6.659 6.659 0 00-1.927-1.448 5.32 5.32 0 00-2.256-.474h-1.97a26.749 26.749 0 00-2.664 3.44 62.281 62.281 0 00-2.717 4.575 101.823 101.823 0 00-2.638 5.287q-1.293 2.777-2.453 5.604-1.161 2.833-2.122 5.519a115.443 115.443 0 00-1.686 5.023q-.708 2.33-1.095 4.117a13.63 13.63 0 00-.394 2.805 2.508 2.508 0 00.634 1.923 2.898 2.898 0 002.06.59h2.299a86.62 86.62 0 01.797-3.459 178.223 178.223 0 011.897-6.833h20.898c.17.637.391 1.376.641 2.202.252.829.51 1.697.769 2.612.25.925.49 1.83.688 2.735a3.18 3.18 0 001.263 2.038 4.874 4.874 0 002.879.706h2.17q-.582-3.161-1.48-6.507-.919-3.352-2.062-6.703m-24.384-1.255q1.13-3.593 2.416-6.875a71.727 71.727 0 012.896-6.44 68.727 68.727 0 013.688-6.418q1.937 3.047 3.524 6.207 1.613 3.156 2.957 6.517a109.049 109.049 0 012.52 7.01z"/><path class="cls-3" d="M180.534 60.91q-1.15-3.36-2.427-6.527-1.27-3.175-2.565-5.978-1.285-2.804-2.487-5.06c-.801-1.493-1.525-2.756-2.19-3.766a15.973 15.973 0 00-1.862-2.42 6.659 6.659 0 00-1.927-1.448 5.32 5.32 0 00-2.256-.474h-1.97a26.749 26.749 0 00-2.664 3.44 62.281 62.281 0 00-2.717 4.575 101.823 101.823 0 00-2.638 5.287q-1.293 2.777-2.453 5.604-1.161 2.833-2.122 5.519a115.443 115.443 0 00-1.686 5.023q-.708 2.33-1.095 4.117a13.63 13.63 0 00-.394 2.805 2.508 2.508 0 00.634 1.923 2.898 2.898 0 002.06.59h2.299a86.62 86.62 0 01.797-3.459 178.223 178.223 0 011.897-6.833h20.898c.17.637.391 1.376.641 2.202.252.829.51 1.697.769 2.612.25.925.49 1.83.688 2.735a3.18 3.18 0 001.263 2.038 4.874 4.874 0 002.879.706h2.17q-.582-3.161-1.48-6.507-.919-3.352-2.062-6.704zm-24.384-1.254q1.13-3.593 2.416-6.875a71.727 71.727 0 012.896-6.44 68.727 68.727 0 013.688-6.418q1.937 3.047 3.524 6.207 1.613 3.156 2.957 6.517a109.049 109.049 0 012.52 7.01z"/><path class="cls-2" d="M223.235 35.585a3.645 3.645 0 00-1.574-.349h-2.5v32.482a17.688 17.688 0 01-1.807-2.374 44.542 44.542 0 01-1.62-2.748 165.676 165.676 0 00-1.632-2.94l-9.463-16.701a20.133 20.133 0 00-2.97-4.081 12.258 12.258 0 00-3.74-2.712 11.229 11.229 0 00-4.72-.986h-2.89V70.58a4.018 4.018 0 00.444 1.934 2.995 2.995 0 001.187 1.2 3.658 3.658 0 001.715.407h2.498V40.78a13.606 13.606 0 011.594 1.563 18.286 18.286 0 011.6 2.082c.551.798 1.117 1.742 1.731 2.82l9.464 16.643a41.7 41.7 0 003.364 5.093 17.29 17.29 0 003.099 3.127 9.373 9.373 0 002.967 1.573 9.595 9.595 0 002.99.439h1.834V37.98a2.524 2.524 0 00-.433-1.43 3.014 3.014 0 00-1.139-.965"/><path class="cls-3" d="M223.235 35.585a3.645 3.645 0 00-1.574-.349h-2.5v32.482a17.688 17.688 0 01-1.807-2.374 44.542 44.542 0 01-1.62-2.748 165.676 165.676 0 00-1.632-2.94l-9.463-16.701a20.133 20.133 0 00-2.97-4.081 12.258 12.258 0 00-3.74-2.712 11.229 11.229 0 00-4.72-.986h-2.89V70.58a4.018 4.018 0 00.444 1.934 2.995 2.995 0 001.187 1.2 3.658 3.658 0 001.715.407h2.498V40.78a13.606 13.606 0 011.594 1.563 18.286 18.286 0 011.6 2.082c.551.798 1.117 1.742 1.731 2.82l9.464 16.643a41.7 41.7 0 003.364 5.093 17.29 17.29 0 003.099 3.127 9.373 9.373 0 002.967 1.573 9.595 9.595 0 002.99.439h1.834V37.98a2.524 2.524 0 00-.433-1.43 3.014 3.014 0 00-1.138-.965z"/><path class="cls-2" d="M266.58 42.412a18.455 18.455 0 00-4.346-4.03 19.813 19.813 0 00-5.454-2.545 21.557 21.557 0 00-6.209-.89h-5.587c-.733 0-1.545.041-2.431.1-.884.064-1.783.154-2.705.26-.929.109-1.81.236-2.638.367-.844.134-1.578.277-2.215.42v30.023a7.548 7.548 0 001.279 4.364 8.203 8.203 0 003.842 2.875 16.99 16.99 0 006.314 1.05h4.008a22.255 22.255 0 008.07-1.446 18.632 18.632 0 006.342-4.086 18.365 18.365 0 004.14-6.36 22.03 22.03 0 001.483-8.234 19.846 19.846 0 00-1.035-6.511 18.155 18.155 0 00-2.858-5.356m-3.133 18.622a12.992 12.992 0 01-2.865 4.623 12.572 12.572 0 01-4.605 2.994 17.119 17.119 0 01-6.197 1.068h-2.433a7.74 7.74 0 01-4.707-1.185 4.53 4.53 0 01-1.598-3.85V40.153a47.74 47.74 0 011.841-.267 43.084 43.084 0 011.966-.178c.648-.05 1.22-.07 1.711-.07h2.564a18.221 18.221 0 018.177 1.677 11.819 11.819 0 015.272 5.106 18.365 18.365 0 011.862 8.658 17.172 17.172 0 01-.989 5.955"/><path class="cls-3" d="M266.58 42.412a18.455 18.455 0 00-4.346-4.03 19.813 19.813 0 00-5.454-2.545 21.557 21.557 0 00-6.209-.89h-5.587c-.733 0-1.545.041-2.431.1-.884.064-1.783.154-2.705.26-.929.109-1.81.236-2.638.367-.844.134-1.578.277-2.215.42v30.023a7.548 7.548 0 001.279 4.364 8.203 8.203 0 003.842 2.875 16.99 16.99 0 006.314 1.05h4.008a22.255 22.255 0 008.07-1.446 18.632 18.632 0 006.342-4.086 18.365 18.365 0 004.14-6.36 22.03 22.03 0 001.483-8.234 19.846 19.846 0 00-1.035-6.511 18.155 18.155 0 00-2.859-5.357zm-3.134 18.622a12.992 12.992 0 01-2.865 4.623 12.572 12.572 0 01-4.604 2.994 17.119 17.119 0 01-6.197 1.069h-2.433a7.74 7.74 0 01-4.707-1.185 4.53 4.53 0 01-1.598-3.85V40.153a47.74 47.74 0 011.841-.267 43.084 43.084 0 011.966-.178c.648-.05 1.22-.07 1.711-.07h2.564a18.221 18.221 0 018.177 1.677 11.819 11.819 0 015.272 5.106 18.365 18.365 0 011.862 8.658 17.172 17.172 0 01-.989 5.955z"/><path class="cls-2" d="M281.987 36.531a9.058 9.058 0 00-2.113 4.135 39.878 39.878 0 00-.571 2.353c-.175.869-.34 1.773-.48 2.72a37.328 37.328 0 00-.328 2.8c-.088.937-.135 1.81-.135 2.652v7.035a20.226 20.226 0 001.732 8.9 11.665 11.665 0 005.323 5.433 20.116 20.116 0 009.177 1.843h5.518a25.348 25.348 0 004.379-.303 7.077 7.077 0 002.53-.855 2.905 2.905 0 001.16-1.37 4.953 4.953 0 00.28-1.814v-1.487q-1.604.402-3.741.736a32.02 32.02 0 01-4.675.352h-3.413a24.878 24.878 0 01-5.653-.535 9.008 9.008 0 01-3.79-1.763 7.041 7.041 0 01-2.124-3.23 15.913 15.913 0 01-.66-4.936v-2.862h15.512a5.742 5.742 0 002.2-.38 2.886 2.886 0 001.27-1.01 2.507 2.507 0 00.403-1.413v-1.658h-19.385c0-1.36.072-2.756.213-4.173a49.25 49.25 0 01.545-4.1 37.74 37.74 0 01.82-3.565h18.533a7.475 7.475 0 002.616-.39 2.711 2.711 0 001.337-.99 2.312 2.312 0 00.385-1.306v-2.117h-23.327a4.787 4.787 0 00-3.538 1.298"/><path class="cls-3" d="M281.987 36.531a9.058 9.058 0 00-2.113 4.135 39.878 39.878 0 00-.571 2.353c-.175.869-.34 1.773-.48 2.72a37.328 37.328 0 00-.328 2.8c-.088.937-.135 1.81-.135 2.652v7.035a20.226 20.226 0 001.732 8.9 11.665 11.665 0 005.323 5.433 20.116 20.116 0 009.177 1.843h5.518a25.348 25.348 0 004.379-.303 7.077 7.077 0 002.53-.855 2.905 2.905 0 001.16-1.37 4.953 4.953 0 00.28-1.814v-1.487q-1.604.402-3.741.736a32.02 32.02 0 01-4.675.352h-3.413a24.878 24.878 0 01-5.653-.535 9.008 9.008 0 01-3.79-1.763 7.041 7.041 0 01-2.124-3.23 15.913 15.913 0 01-.66-4.936v-2.862h15.512a5.742 5.742 0 002.2-.38 2.886 2.886 0 001.27-1.01 2.507 2.507 0 00.403-1.413v-1.658h-19.385c0-1.36.072-2.756.213-4.173a49.25 49.25 0 01.545-4.1 37.74 37.74 0 01.82-3.565h18.533a7.475 7.475 0 002.616-.39 2.711 2.711 0 001.337-.99 2.312 2.312 0 00.385-1.306v-2.117h-23.327a4.787 4.787 0 00-3.538 1.298z"/><path class="cls-2" d="M347.28 71.767c-.256-.412-.462-.783-.65-1.133l-4.073-8.35a26.35 26.35 0 00-.898-1.755 11.763 11.763 0 00-1.283-1.887 8.667 8.667 0 00-1.924-1.724 9.902 9.902 0 00-2.857-1.268 16.736 16.736 0 004.04-.99 11.652 11.652 0 003.33-1.983 8.73 8.73 0 002.243-3.011 9.77 9.77 0 00.834-4.08 9.413 9.413 0 00-1.785-5.731 10.947 10.947 0 00-5.016-3.641 21.965 21.965 0 00-7.79-1.268h-4.01c-.893 0-1.86.051-2.884.143-1.03.104-2.075.228-3.103.404-1.041.16-2.015.353-2.935.562a23.084 23.084 0 00-2.378.665v34.083a3.185 3.185 0 00.946 2.48 4.263 4.263 0 002.867.838h2.236V57.022c.515.098 1.183.19 2.006.295.822.109 1.705.201 2.668.285q1.448.128 2.88.221a8.498 8.498 0 011.952.293 5.29 5.29 0 011.796.916 8.441 8.441 0 011.793 1.956 23.922 23.922 0 011.952 3.41l3.35 6.978a4.745 4.745 0 001.877 2.181 5.786 5.786 0 003.051.731c.218 0 .515-.017.867-.044.345-.028.702-.056 1.062-.094.362-.039.666-.066.903-.096.244-.025.375-.048.39-.048v-.286a8.165 8.165 0 01-.694-.83 19.72 19.72 0 01-.763-1.123m-13.494-18.939a16.693 16.693 0 01-3.512.361c-1.286 0-2.586-.045-3.922-.134a60.035 60.035 0 01-4.162-.439V40.153a32.467 32.467 0 012.869-.466 22.672 22.672 0 012.582-.164h3.35a16.535 16.535 0 013.463.326 8.497 8.497 0 012.87 1.112 5.483 5.483 0 011.948 2.106 7.1 7.1 0 01.725 3.317 5.86 5.86 0 01-.857 3.164 6.476 6.476 0 01-2.23 2.108 10.988 10.988 0 01-3.124 1.172"/><path class="cls-3" d="M347.28 71.767c-.256-.412-.462-.783-.65-1.133l-4.073-8.35a26.35 26.35 0 00-.898-1.755 11.763 11.763 0 00-1.283-1.887 8.667 8.667 0 00-1.924-1.724 9.902 9.902 0 00-2.857-1.268 16.736 16.736 0 004.04-.99 11.652 11.652 0 003.33-1.983 8.73 8.73 0 002.243-3.011 9.77 9.77 0 00.834-4.08 9.413 9.413 0 00-1.785-5.731 10.947 10.947 0 00-5.016-3.641 21.965 21.965 0 00-7.79-1.268h-4.01c-.893 0-1.86.051-2.884.143-1.03.104-2.075.228-3.103.404-1.041.16-2.015.353-2.935.562a23.084 23.084 0 00-2.378.665v34.083a3.185 3.185 0 00.946 2.48 4.263 4.263 0 002.867.838h2.236V57.022c.515.098 1.183.19 2.006.295.822.109 1.705.201 2.668.285q1.448.128 2.88.221a8.498 8.498 0 011.952.293 5.29 5.29 0 011.796.916 8.441 8.441 0 011.793 1.956 23.922 23.922 0 011.952 3.41l3.35 6.978a4.745 4.745 0 001.877 2.181 5.786 5.786 0 003.051.731c.218 0 .515-.017.867-.044.345-.028.702-.056 1.062-.094.362-.039.666-.066.903-.096.244-.025.375-.048.39-.048v-.286a8.165 8.165 0 01-.694-.83 19.412 19.412 0 01-.764-1.123zm-13.494-18.939a16.693 16.693 0 01-3.512.361c-1.286 0-2.586-.045-3.922-.134a60.035 60.035 0 01-4.162-.439V40.153a32.467 32.467 0 012.869-.466 22.672 22.672 0 012.582-.164h3.35a16.535 16.535 0 013.463.326 8.497 8.497 0 012.87 1.112 5.483 5.483 0 011.948 2.106 7.1 7.1 0 01.725 3.317 5.86 5.86 0 01-.857 3.164 6.476 6.476 0 01-2.23 2.108 10.988 10.988 0 01-3.124 1.172z"/><path class="cls-2" d="M360.192 35.565a3.72 3.72 0 00-1.535-.332h-2.895v35.059a4.432 4.432 0 00.518 2.188 2.967 2.967 0 001.379 1.24 4.92 4.92 0 002.049.4h2.17V37.863a2.28 2.28 0 00-.484-1.374 3.361 3.361 0 00-1.202-.925"/><path class="cls-3" d="M360.192 35.565a3.72 3.72 0 00-1.535-.332h-2.895v35.059a4.432 4.432 0 00.518 2.188 2.967 2.967 0 001.379 1.24 4.92 4.92 0 002.049.4h2.17V37.863a2.28 2.28 0 00-.484-1.374 3.361 3.361 0 00-1.202-.925z"/><path class="cls-2" d="M404.227 67.61a110.657 110.657 0 00-2.064-6.7q-1.15-3.36-2.436-6.531-1.26-3.174-2.556-5.974a93.44 93.44 0 00-2.49-5.06c-.798-1.496-1.516-2.756-2.188-3.766a15.658 15.658 0 00-1.863-2.424 6.536 6.536 0 00-1.926-1.446 5.327 5.327 0 00-2.256-.475h-1.97a26.356 26.356 0 00-2.66 3.44c-.91 1.371-1.806 2.899-2.717 4.574q-1.352 2.518-2.641 5.291-1.294 2.772-2.448 5.602-1.175 2.836-2.13 5.52a111.888 111.888 0 00-1.682 5.025 54.914 54.914 0 00-1.097 4.117 13.553 13.553 0 00-.391 2.805 2.479 2.479 0 00.633 1.923 2.916 2.916 0 002.058.589h2.303c.217-1.086.49-2.23.795-3.458.307-1.222.634-2.422.964-3.603.33-1.193.645-2.272.927-3.233h20.902c.173.639.39 1.37.642 2.201s.506 1.7.77 2.615c.248.922.49 1.83.693 2.735a3.141 3.141 0 001.256 2.037 4.879 4.879 0 002.879.706h2.168q-.572-3.161-1.476-6.509m-26.448-7.958q1.134-3.589 2.418-6.873a71.603 71.603 0 012.89-6.444 69.408 69.408 0 013.696-6.412q1.927 3.047 3.52 6.203 1.613 3.161 2.955 6.52a107.983 107.983 0 012.52 7.006z"/><path class="cls-3" d="M404.227 67.61a110.657 110.657 0 00-2.064-6.7q-1.15-3.36-2.436-6.531-1.26-3.174-2.556-5.974a93.44 93.44 0 00-2.49-5.06c-.798-1.496-1.516-2.756-2.188-3.766a15.658 15.658 0 00-1.863-2.424 6.536 6.536 0 00-1.926-1.446 5.327 5.327 0 00-2.256-.475h-1.97a26.356 26.356 0 00-2.66 3.44c-.91 1.371-1.806 2.899-2.717 4.574q-1.352 2.518-2.641 5.291-1.294 2.772-2.448 5.602-1.175 2.836-2.13 5.52a111.888 111.888 0 00-1.682 5.025 54.914 54.914 0 00-1.097 4.117 13.553 13.553 0 00-.391 2.805 2.479 2.479 0 00.633 1.923 2.916 2.916 0 002.058.589h2.303c.217-1.086.49-2.23.795-3.458.307-1.222.634-2.422.964-3.603.33-1.193.645-2.272.927-3.233h20.902c.173.639.39 1.37.642 2.201s.506 1.7.77 2.615c.248.922.49 1.83.693 2.735a3.141 3.141 0 001.256 2.037 4.879 4.879 0 002.879.706h2.168q-.571-3.162-1.475-6.51zm-26.449-7.958q1.134-3.589 2.418-6.873a71.603 71.603 0 012.891-6.444 69.408 69.408 0 013.695-6.412q1.928 3.046 3.52 6.203 1.613 3.16 2.955 6.52a107.983 107.983 0 012.52 7.006z"/><path class="cls-2" d="M217.802 2.057V0c59.761.003 113.879 8.396 153.22 22.039 19.68 6.831 35.666 14.968 46.872 24.148a56.517 56.517 0 0113.043 14.596 30.203 30.203 0 010 32.254c-5.32 8.986-14.807 17.156-27.607 24.476-19.213 10.957-45.968 20.008-77.75 26.346-31.77 6.341-68.561 9.961-107.778 9.961-59.765-.004-113.877-8.396-153.224-22.037-19.67-6.833-35.664-14.966-46.87-24.153A56.354 56.354 0 014.665 93.037a30.191 30.191 0 01.004-32.254c5.315-8.987 14.802-17.151 27.602-24.468C51.49 25.352 78.24 16.302 110.02 9.958 141.793 3.621 178.584 0 217.803 0v4.112c-59.371-.002-113.13 8.366-151.873 21.81C46.56 32.645 30.953 40.638 20.317 49.37a52.425 52.425 0 00-12.11 13.502 26.114 26.114 0 000 28.078c4.748 8.067 13.679 15.903 26.107 22.986 18.63 10.64 45.04 19.618 76.508 25.894 31.473 6.281 68.012 9.879 106.98 9.879 59.366.007 113.13-8.363 151.877-21.815 19.37-6.716 34.977-14.712 45.606-23.438a52.308 52.308 0 0012.109-13.506 27.487 27.487 0 004.104-14.04 27.493 27.493 0 00-4.104-14.038c-4.747-8.067-13.676-15.902-26.107-22.986-18.629-10.647-45.039-19.62-76.507-25.895-31.476-6.28-68.015-9.879-106.978-9.879V2.057"/><path class="cls-4" d="M205.384 112.694a324.984 324.984 0 005.869 5.465 222.184 222.184 0 006.242 5.426 20.78 20.78 0 01-2.824 2.01 12.287 12.287 0 01-2.916 1.242 12.707 12.707 0 01-3.287.416q-4.534.018-6.991-1.765a6.492 6.492 0 01-2.46-5.57 5.04 5.04 0 01.83-2.718 9.671 9.671 0 012.236-2.41 20.21 20.21 0 013.3-2.095m4.339-17.005a8.235 8.235 0 013.084.524 4.166 4.166 0 012.798 4.134 3.687 3.687 0 01-.982 2.444 10.822 10.822 0 01-2.775 2.167 43.901 43.901 0 01-4.293 2.147c-.607-.653-1.21-1.305-1.838-1.935a11.263 11.263 0 01-1.61-1.999 4.627 4.627 0 01-.68-2.358 4.674 4.674 0 011.678-3.834 7.39 7.39 0 014.618-1.29m21.066 36.167a6.27 6.27 0 001.67-.167 2.35 2.35 0 001.168-.758 6.725 6.725 0 001.012-1.757 9.327 9.327 0 01-2.222-.535 11.434 11.434 0 01-2.107-1.045q-1.06-.688-2.352-1.692a176.213 176.213 0 01-2.976-2.434 32.838 32.838 0 003.232-3.697 19.705 19.705 0 002.196-3.651 8.613 8.613 0 00.804-3.308 3.402 3.402 0 00-.47-1.782 3.182 3.182 0 00-1.117-1.102 2.713 2.713 0 00-1.356-.382h-1.677a13.425 13.425 0 01-.713 3.464 16.706 16.706 0 01-1.797 3.676 19.913 19.913 0 01-2.949 3.577 130.4 130.4 0 01-3.256-2.814 170.851 170.851 0 01-3.735-3.438 117.88 117.88 0 01-3.58-3.589 44.71 44.71 0 006.394-3.615 12.637 12.637 0 003.522-3.423 6.645 6.645 0 001.071-3.677 7.392 7.392 0 00-1.48-4.55 9.254 9.254 0 00-4.011-2.95 15.73 15.73 0 00-5.916-1.064 18.446 18.446 0 00-5.736.84 11.459 11.459 0 00-4.037 2.192 9.007 9.007 0 00-2.393 3.116 8.576 8.576 0 00-.777 3.58 7.193 7.193 0 00.524 2.704 11.178 11.178 0 001.654 2.724 27.857 27.857 0 002.856 3.018 20.86 20.86 0 00-7.078 5.308 9.877 9.877 0 00-2.368 6.276 11.04 11.04 0 00.862 4.381 9.45 9.45 0 002.672 3.484 12.869 12.869 0 004.56 2.31 23.368 23.368 0 006.533.835 24.746 24.746 0 004.88-.445 16.026 16.026 0 003.647-1.175 16.718 16.718 0 002.8-1.623c.825-.6 1.601-1.2 2.32-1.821l2.662 2.27a11.306 11.306 0 003.346 2.068 10.275 10.275 0 003.718.671"/><path class="cls-3" d="M232.414 128.64a11.482 11.482 0 01-2.104-1.044q-1.06-.689-2.355-1.693c-.85-.677-1.844-1.493-2.974-2.433a33.018 33.018 0 003.23-3.698 19.71 19.71 0 002.197-3.65 8.613 8.613 0 00.803-3.31 3.393 3.393 0 00-.47-1.78 3.163 3.163 0 00-1.117-1.103 2.703 2.703 0 00-1.354-.382h-1.678a13.425 13.425 0 01-.713 3.464 16.715 16.715 0 01-1.798 3.676 19.869 19.869 0 01-2.948 3.577 134.12 134.12 0 01-3.256-2.814 166.377 166.377 0 01-3.734-3.438 116.18 116.18 0 01-3.58-3.589 44.674 44.674 0 006.392-3.615 12.66 12.66 0 003.524-3.423 6.643 6.643 0 001.07-3.677 7.404 7.404 0 00-1.48-4.551 9.25 9.25 0 00-4.01-2.95 15.733 15.733 0 00-5.916-1.064 18.453 18.453 0 00-5.738.84 11.482 11.482 0 00-4.037 2.193 9 9 0 00-2.391 3.116 8.546 8.546 0 00-.779 3.58 7.174 7.174 0 00.525 2.704 11.147 11.147 0 001.655 2.724 27.857 27.857 0 002.856 3.018 20.858 20.858 0 00-7.078 5.308 9.871 9.871 0 00-2.369 6.276 11.017 11.017 0 00.863 4.38 9.454 9.454 0 002.672 3.485 12.869 12.869 0 004.56 2.31 23.37 23.37 0 006.532.835 24.749 24.749 0 004.88-.445 16.026 16.026 0 003.648-1.175 16.785 16.785 0 002.8-1.622c.825-.6 1.601-1.2 2.322-1.822l2.66 2.27a11.294 11.294 0 003.347 2.068 10.274 10.274 0 003.716.671 6.262 6.262 0 001.67-.167 2.345 2.345 0 001.168-.758 6.695 6.695 0 001.013-1.756 9.347 9.347 0 01-2.224-.535zm-27.31-31.66a7.394 7.394 0 014.617-1.29 8.228 8.228 0 013.084.525 4.168 4.168 0 012.8 4.134 3.699 3.699 0 01-.98 2.444 10.824 10.824 0 01-2.78 2.167 43.577 43.577 0 01-4.292 2.147c-.607-.654-1.21-1.305-1.838-1.936a11.172 11.172 0 01-1.61-1.998 4.901 4.901 0 01.999-6.192zm9.566 28.615a12.225 12.225 0 01-2.916 1.241 12.658 12.658 0 01-3.287.417q-4.533.018-6.988-1.765a6.498 6.498 0 01-2.463-5.57 5.046 5.046 0 01.83-2.72 9.698 9.698 0 012.236-2.407 20.215 20.215 0 013.301-2.096 324.984 324.984 0 005.87 5.465q3.048 2.75 6.24 5.425a20.57 20.57 0 01-2.822 2.01z"/><g clip-path="url(#clip-path)"><path fill="url(#linear-gradient)" d="M244.778 127.384h112.164v4.076H244.778z"/></g><path class="cls-2" d="M89.349 113.202v-1.231c-.597.133-1.291.255-2.079.355a40.5 40.5 0 01-2.527.241c-.894.054-1.795.086-2.702.086h-2.086a18.9 18.9 0 01-4.188-.367 5.296 5.296 0 01-2.591-1.31 5.063 5.063 0 01-1.31-2.54 17.693 17.693 0 01-.366-4.1V88.342a3.876 3.876 0 00-.384-1.882 2.094 2.094 0 00-1.101-.961 4.511 4.511 0 00-1.7-.269H66.5v20.203a12.816 12.816 0 001.291 6.061 8.523 8.523 0 004.049 3.78 16.746 16.746 0 007.072 1.312h3.13a22.165 22.165 0 003.76-.266 6.676 6.676 0 002.217-.727 2.563 2.563 0 001.063-1.075 3.028 3.028 0 00.267-1.316M113.128 104.794H98.08a88.732 88.732 0 012.02-5.491 57.278 57.278 0 012.418-5.15 55.35 55.35 0 013.086-5.126 57.45 57.45 0 012.947 4.963 60.5 60.5 0 012.469 5.207 84.804 84.804 0 012.107 5.597m8.293 11.564a60.5 60.5 0 00-1.24-5.203 83.417 83.417 0 00-1.717-5.357 104.803 104.803 0 00-2.03-5.214q-1.061-2.537-2.142-4.78-1.075-2.232-2.08-4.042c-.67-1.195-1.27-2.201-1.831-3.009a12.431 12.431 0 00-1.558-1.933 5.373 5.373 0 00-1.608-1.16 4.646 4.646 0 00-1.886-.378h-1.648a21.257 21.257 0 00-2.223 2.749 45.386 45.386 0 00-2.267 3.658 77.793 77.793 0 00-2.209 4.22q-1.09 2.223-2.049 4.482-.983 2.26-1.778 4.411-.806 2.139-1.408 4.016a42.107 42.107 0 00-.914 3.286 10.4 10.4 0 00-.33 2.24 1.942 1.942 0 00.529 1.538 2.476 2.476 0 001.719.476h1.928c.18-.87.409-1.786.664-2.767a134.656 134.656 0 011.584-5.457h17.464c.145.506.33 1.095.543 1.751.209.669.418 1.36.64 2.096.205.737.407 1.456.575 2.181a2.543 2.543 0 001.052 1.632 4.266 4.266 0 002.407.564zM156.019 83.728a6.305 6.305 0 00.151-.79 6.09 6.09 0 00.041-.749 1.47 1.47 0 00-.338-.917 2.273 2.273 0 00-.891-.709 3.036 3.036 0 00-1.32-.28h-2.797q-.56 2.86-1.49 6.03a100.456 100.456 0 01-2.133 6.449 104.093 104.093 0 01-2.568 6.446 109.435 109.435 0 01-2.823 6.033c-.974 1.9-1.94 3.64-2.895 5.197a55.24 55.24 0 01-2.976-5.052 85.692 85.692 0 01-2.713-5.748 114.116 114.116 0 01-2.37-5.947 111.258 111.258 0 01-1.899-5.646 72.202 72.202 0 01-1.32-4.847 3.25 3.25 0 00-.934-1.61 4.604 4.604 0 00-1.57-.982 4.77 4.77 0 00-1.694-.324h-2.547c.571 2.756 1.325 5.6 2.241 8.54q1.377 4.413 3.224 8.833a93.24 93.24 0 004.129 8.628 72.75 72.75 0 004.928 7.917 6.347 6.347 0 001.926 1.828 3.614 3.614 0 001.83.558h1.458c.768-1.026 1.608-2.309 2.537-3.827s1.895-3.215 2.903-5.078q1.515-2.804 3.004-5.902 1.494-3.083 2.83-6.253 1.343-3.154 2.39-6.167 1.053-3.003 1.686-5.632M178.978 104.794H163.93a88.732 88.732 0 012.02-5.491 56.55 56.55 0 012.418-5.15 54.33 54.33 0 013.087-5.126 56.685 56.685 0 012.945 4.962q1.35 2.52 2.473 5.207a84.805 84.805 0 012.105 5.598m8.291 11.563a61.246 61.246 0 00-1.234-5.203 87.944 87.944 0 00-1.719-5.356 102.6 102.6 0 00-2.033-5.214q-1.058-2.537-2.144-4.781-1.07-2.231-2.079-4.041c-.664-1.196-1.27-2.202-1.83-3.01a12.595 12.595 0 00-1.552-1.933 5.47 5.47 0 00-1.614-1.16 4.666 4.666 0 00-1.886-.378h-1.645a20.926 20.926 0 00-2.223 2.749 45.659 45.659 0 00-2.272 3.658 78.51 78.51 0 00-2.206 4.221q-1.085 2.222-2.05 4.481-.977 2.26-1.776 4.411a80.11 80.11 0 00-1.408 4.016 42.51 42.51 0 00-.913 3.286 10.382 10.382 0 00-.332 2.24 1.949 1.949 0 00.53 1.538 2.477 2.477 0 001.721.476h1.922c.183-.87.414-1.785.67-2.767.254-.972.53-1.933.802-2.88.272-.95.54-1.811.778-2.577h17.465c.144.506.33 1.095.54 1.751.21.67.421 1.36.64 2.096.208.737.413 1.456.577 2.182a2.571 2.571 0 001.053 1.631 4.258 4.258 0 002.408.564zM259.022 121.074v-1.233c-.598.138-1.29.254-2.078.355-.79.109-1.627.18-2.526.246-.898.056-1.794.08-2.701.08h-2.084a18.986 18.986 0 01-4.193-.363 5.31 5.31 0 01-2.592-1.31 5.049 5.049 0 01-1.306-2.545 17.922 17.922 0 01-.372-4.096V96.212a3.866 3.866 0 00-.378-1.882 2.115 2.115 0 00-1.102-.962 4.642 4.642 0 00-1.703-.264h-1.811v20.2a12.884 12.884 0 001.289 6.064 8.51 8.51 0 004.045 3.78 16.804 16.804 0 007.078 1.31h3.129a22.05 22.05 0 003.762-.27 6.662 6.662 0 002.217-.725 2.536 2.536 0 001.062-1.072 3.015 3.015 0 00.264-1.317M282.804 112.663h-15.048q.95-2.868 2.022-5.492a56.902 56.902 0 015.502-10.273 58.125 58.125 0 012.95 4.955 63.577 63.577 0 012.466 5.212 84.893 84.893 0 012.107 5.598m8.293 11.562q-.48-2.524-1.238-5.2a83.832 83.832 0 00-1.719-5.356q-.962-2.688-2.03-5.215a91.471 91.471 0 00-2.146-4.776q-1.073-2.243-2.076-4.048c-.668-1.192-1.273-2.197-1.83-3.005a12.834 12.834 0 00-1.555-1.936 5.447 5.447 0 00-1.609-1.158 4.614 4.614 0 00-1.885-.382h-1.652a21.174 21.174 0 00-2.223 2.751 46.548 46.548 0 00-2.266 3.655 77.742 77.742 0 00-2.21 4.225q-1.081 2.221-2.05 4.482-.98 2.26-1.775 4.41a86.48 86.48 0 00-1.412 4.016 45.465 45.465 0 00-.918 3.29 10.767 10.767 0 00-.327 2.238 1.945 1.945 0 00.532 1.537 2.49 2.49 0 001.718.472h1.927c.182-.868.412-1.78.668-2.764.252-.974.529-1.934.806-2.878.27-.95.54-1.814.774-2.584h17.467c.147.51.33 1.097.541 1.76.207.666.42 1.356.636 2.086.213.742.415 1.465.58 2.186a2.534 2.534 0 001.055 1.632 4.216 4.216 0 002.408.562zM348.647 112.663h-15.045q.953-2.868 2.028-5.492a54.79 54.79 0 012.412-5.148 53.678 53.678 0 013.086-5.125 59.139 59.139 0 012.947 4.956q1.346 2.526 2.47 5.211a81.168 81.168 0 012.103 5.598m8.294 11.562q-.477-2.524-1.232-5.2a88.294 88.294 0 00-1.723-5.356q-.965-2.688-2.027-5.215a103.634 103.634 0 00-2.143-4.776q-1.073-2.243-2.08-4.048c-.67-1.192-1.275-2.197-1.833-3.005a12.316 12.316 0 00-1.56-1.936 5.31 5.31 0 00-1.605-1.158 4.604 4.604 0 00-1.885-.382h-1.648a20.856 20.856 0 00-2.225 2.751c-.764 1.097-1.509 2.315-2.271 3.655a81.211 81.211 0 00-2.207 4.225q-1.081 2.221-2.05 4.482a85.983 85.983 0 00-1.774 4.41 78.022 78.022 0 00-1.407 4.016 42.569 42.569 0 00-.916 3.29 10.425 10.425 0 00-.334 2.238 1.942 1.942 0 00.534 1.537 2.475 2.475 0 001.72.472h1.922c.182-.868.412-1.78.668-2.764.258-.974.532-1.934.806-2.878.274-.95.54-1.814.776-2.584h17.467c.142.51.328 1.097.537 1.76.211.666.424 1.356.642 2.086.21.742.414 1.465.573 2.186a2.581 2.581 0 001.056 1.632 4.244 4.244 0 002.41.562zM325.4 91.597a7.003 7.003 0 00.15-.786 6.188 6.188 0 00.042-.752 1.494 1.494 0 00-.338-.916 2.278 2.278 0 00-.891-.712 3.102 3.102 0 00-1.316-.278h-2.805a64.805 64.805 0 01-1.488 6.031 102.786 102.786 0 01-2.128 6.45c-.796 2.19-1.649 4.337-2.573 6.442a114.946 114.946 0 01-2.817 6.036 81.596 81.596 0 01-2.906 5.196 55.691 55.691 0 01-2.965-5.054q-1.442-2.767-2.722-5.75c-.86-1.99-1.642-3.966-2.364-5.945a116.82 116.82 0 01-1.903-5.644c-.539-1.786-.989-3.408-1.317-4.85a3.232 3.232 0 00-.933-1.606 4.66 4.66 0 00-1.57-.983 4.792 4.792 0 00-1.695-.323h-2.549q.86 4.135 2.24 8.54 1.382 4.417 3.225 8.83a92.812 92.812 0 004.13 8.632 72.863 72.863 0 004.926 7.914 6.39 6.39 0 001.93 1.83 3.627 3.627 0 001.825.557h1.465c.765-1.026 1.599-2.31 2.54-3.825q1.38-2.282 2.895-5.08 1.514-2.806 3.002-5.901 1.5-3.087 2.836-6.255 1.337-3.152 2.39-6.165 1.053-3.004 1.684-5.634"/><g clip-path="url(#clip-path-2)"><path fill="url(#linear-gradient-2)" d="M72.631 120.448h112.166v4.074H72.631z"/></g><path class="cls-4" d="M395.777 59.651h-18q1.134-3.587 2.418-6.872 1.285-3.275 2.892-6.444a69.718 69.718 0 013.694-6.412q1.928 3.047 3.523 6.207a79.954 79.954 0 012.955 6.516 110.26 110.26 0 012.518 7.005m9.925 14.468q-.579-3.161-1.48-6.509a108.49 108.49 0 00-2.059-6.7q-1.154-3.36-2.436-6.527-1.262-3.18-2.56-5.978a92.855 92.855 0 00-2.485-5.06c-.799-1.496-1.521-2.756-2.19-3.765a15.765 15.765 0 00-1.863-2.42 6.468 6.468 0 00-1.926-1.449 5.313 5.313 0 00-2.257-.477h-1.973a26.82 26.82 0 00-2.658 3.443c-.908 1.368-1.807 2.896-2.717 4.575q-1.348 2.512-2.638 5.287a123.093 123.093 0 00-2.45 5.602q-1.173 2.836-2.126 5.521a112.805 112.805 0 00-1.685 5.023 56.793 56.793 0 00-1.097 4.118 13.701 13.701 0 00-.392 2.804 2.486 2.486 0 00.63 1.923 2.927 2.927 0 002.06.59h2.3c.223-1.087.496-2.231.798-3.459.312-1.222.636-2.419.968-3.602.328-1.194.64-2.268.928-3.23h20.895c.175.636.396 1.366.647 2.198s.506 1.7.77 2.615c.248.925.49 1.83.689 2.734a3.183 3.183 0 001.257 2.04 4.896 4.896 0 002.881.704zm-43.828 0V37.864a2.265 2.265 0 00-.48-1.374 3.367 3.367 0 00-1.207-.925 3.691 3.691 0 00-1.53-.332h-2.894v35.059a4.334 4.334 0 00.516 2.188 2.958 2.958 0 001.38 1.24 4.91 4.91 0 002.047.399zm-21.879-27.735a5.874 5.874 0 01-.855 3.166 6.563 6.563 0 01-2.232 2.106 10.924 10.924 0 01-3.127 1.172 16.337 16.337 0 01-3.512.361c-1.28 0-2.581-.045-3.92-.134a59.586 59.586 0 01-4.162-.439V40.153c.986-.2 1.95-.364 2.873-.466a22.61 22.61 0 012.58-.164h3.35a16.729 16.729 0 013.459.325 8.453 8.453 0 012.873 1.115 5.47 5.47 0 011.946 2.104 7.067 7.067 0 01.727 3.317m8.735 27.622v-.286a9.387 9.387 0 01-.688-.83c-.261-.355-.517-.724-.767-1.123a21.32 21.32 0 01-.65-1.133l-4.068-8.35a27.108 27.108 0 00-.903-1.754 11.742 11.742 0 00-1.278-1.888 8.889 8.889 0 00-1.927-1.724 9.894 9.894 0 00-2.858-1.266 16.765 16.765 0 004.045-.992 11.527 11.527 0 003.324-1.983 8.72 8.72 0 002.248-3.01 9.862 9.862 0 00.834-4.08 9.403 9.403 0 00-1.79-5.732 10.968 10.968 0 00-5.016-3.64 21.916 21.916 0 00-7.787-1.268h-4.008c-.897 0-1.86.05-2.89.142-1.032.106-2.07.229-3.098.404a41.95 41.95 0 00-2.937.562 23.284 23.284 0 00-2.375.665v34.083a3.17 3.17 0 00.943 2.48 4.265 4.265 0 002.87.837h2.233v-17.1c.516.1 1.184.193 1.998.298.829.108 1.715.201 2.678.285.959.085 1.926.16 2.877.22a8.468 8.468 0 011.953.294 5.266 5.266 0 011.795.916 8.442 8.442 0 011.795 1.956 23.846 23.846 0 011.949 3.41l3.35 6.977a4.753 4.753 0 001.877 2.183 5.798 5.798 0 003.053.73c.22 0 .515-.017.863-.044.35-.028.702-.056 1.068-.099.356-.035.664-.061.903-.091.244-.025.375-.048.384-.048m-40.277-3.946v-1.488a42.288 42.288 0 01-3.736.736 32.1 32.1 0 01-4.674.352h-3.418a24.903 24.903 0 01-5.652-.535 8.99 8.99 0 01-3.79-1.763 7.039 7.039 0 01-2.121-3.23 15.94 15.94 0 01-.66-4.936v-2.862h15.513a5.765 5.765 0 002.198-.38 2.92 2.92 0 001.272-1.01 2.52 2.52 0 00.403-1.413v-1.658h-19.386a41.465 41.465 0 01.211-4.173c.13-1.42.316-2.786.548-4.1.241-1.315.514-2.509.82-3.565h18.528a7.505 7.505 0 002.62-.39 2.702 2.702 0 001.335-.99 2.312 2.312 0 00.385-1.306v-2.117h-23.325a4.784 4.784 0 00-3.538 1.298 9.04 9.04 0 00-2.116 4.135 39.363 39.363 0 00-.566 2.353c-.176.869-.344 1.773-.488 2.716-.135.936-.252 1.87-.326 2.804a27.6 27.6 0 00-.133 2.651v7.036a20.28 20.28 0 001.73 8.9 11.666 11.666 0 005.326 5.433 20.127 20.127 0 009.178 1.842h5.518a25.285 25.285 0 004.38-.302 7.031 7.031 0 002.526-.855 2.936 2.936 0 001.166-1.37 4.996 4.996 0 00.273-1.814m-44.027-14.984a17.161 17.161 0 01-.984 5.958 12.972 12.972 0 01-2.869 4.623 12.455 12.455 0 01-4.602 2.99 17.17 17.17 0 01-6.193 1.07h-2.432a7.698 7.698 0 01-4.71-1.183 4.508 4.508 0 01-1.602-3.849V40.153a38.037 38.037 0 011.845-.267 46.96 46.96 0 011.969-.18 22.818 22.818 0 011.71-.069h2.565a18.251 18.251 0 018.176 1.677 11.813 11.813 0 015.269 5.107 18.285 18.285 0 011.858 8.655m6.047-.797a20.052 20.052 0 00-1.038-6.51 18.11 18.11 0 00-2.86-5.36 18.568 18.568 0 00-4.345-4.03 19.882 19.882 0 00-5.457-2.546 21.548 21.548 0 00-6.207-.886h-5.586c-.73 0-1.545.039-2.435.096q-1.328.098-2.7.261-1.394.167-2.638.368c-.846.133-1.582.277-2.214.421v30.02a7.506 7.506 0 001.28 4.368 8.22 8.22 0 003.832 2.876 16.96 16.96 0 006.321 1.045h4.009a22.145 22.145 0 008.071-1.444 18.571 18.571 0 006.342-4.089 18.258 18.258 0 004.138-6.358 22.087 22.087 0 001.487-8.23m-45.666 19.84V37.976a2.525 2.525 0 00-.439-1.426 2.93 2.93 0 00-1.14-.965 3.6 3.6 0 00-1.573-.352h-2.5v32.483a18.128 18.128 0 01-1.805-2.375q-.838-1.3-1.618-2.745a192.982 192.982 0 00-1.638-2.945l-9.457-16.698a20.513 20.513 0 00-2.969-4.079 12.343 12.343 0 00-3.748-2.712 11.134 11.134 0 00-4.715-.985h-2.893v35.4a4.006 4.006 0 00.45 1.936 2.975 2.975 0 001.178 1.195 3.608 3.608 0 001.724.411h2.493V40.78a14.272 14.272 0 011.599 1.563 19.115 19.115 0 011.6 2.082c.55.796 1.119 1.742 1.732 2.82l9.461 16.638a41.274 41.274 0 003.358 5.1 17.631 17.631 0 003.105 3.128 9.455 9.455 0 002.966 1.571 9.696 9.696 0 002.993.437zm-50.66-14.47h-18.003q1.133-3.587 2.416-6.872 1.287-3.275 2.893-6.444a71.283 71.283 0 013.69-6.412q1.94 3.047 3.53 6.207 1.608 3.155 2.955 6.516c.898 2.228 1.73 4.579 2.519 7.005m9.922 14.468q-.574-3.161-1.478-6.509a110.254 110.254 0 00-2.06-6.7c-.77-2.24-1.575-4.412-2.43-6.527q-1.267-3.18-2.565-5.978-1.28-2.803-2.484-5.06c-.8-1.496-1.525-2.755-2.19-3.765a16.21 16.21 0 00-1.86-2.42 6.471 6.471 0 00-1.933-1.448 5.281 5.281 0 00-2.254-.478h-1.97a26.395 26.395 0 00-2.661 3.443c-.906 1.369-1.806 2.896-2.716 4.576a100.251 100.251 0 00-2.639 5.287q-1.3 2.771-2.453 5.601-1.169 2.836-2.123 5.522a105.81 105.81 0 00-1.686 5.023q-.705 2.33-1.097 4.117a13.758 13.758 0 00-.39 2.805 2.475 2.475 0 00.634 1.923 2.905 2.905 0 002.053.589h2.302a82.17 82.17 0 01.799-3.458c.307-1.222.635-2.42.964-3.603.33-1.193.647-2.267.93-3.23h20.895c.175.637.4 1.366.648 2.198.253.832.503 1.7.768 2.616.25.924.49 1.829.689 2.734a3.189 3.189 0 001.258 2.04 4.892 4.892 0 002.881.703zm-40.08-35.17a7.331 7.331 0 00.151-.844 7.498 7.498 0 00.043-.81 1.62 1.62 0 00-.35-.993 2.362 2.362 0 00-.918-.765 3.006 3.006 0 00-1.359-.304h-2.893c-.38 2.063-.896 4.232-1.53 6.51a108.581 108.581 0 01-2.206 6.955q-1.226 3.547-2.645 6.96-1.414 3.413-2.916 6.51a89.358 89.358 0 01-2.986 5.605 58.185 58.185 0 01-3.067-5.452 93.198 93.198 0 01-2.804-6.207 120.46 120.46 0 01-2.446-6.412q-1.113-3.189-1.955-6.092a79.988 79.988 0 01-1.359-5.232 3.62 3.62 0 00-.965-1.734 4.806 4.806 0 00-1.62-1.06 4.752 4.752 0 00-1.749-.35h-2.628c.591 2.974 1.37 6.042 2.31 9.217q1.427 4.76 3.322 9.529 1.915 4.775 4.264 9.313a79.992 79.992 0 005.082 8.54 6.765 6.765 0 001.992 1.972 3.562 3.562 0 001.883.596h1.51c.79-1.098 1.658-2.484 2.62-4.12.952-1.64 1.95-3.47 2.987-5.48a162.54 162.54 0 003.099-6.368q1.551-3.329 2.926-6.751a112.498 112.498 0 002.466-6.65q1.083-3.245 1.74-6.083M95.368 59.65H77.361c.756-2.391 1.57-4.678 2.422-6.872q1.282-3.275 2.894-6.444a70.947 70.947 0 013.684-6.412 70.11 70.11 0 013.53 6.207q1.615 3.155 2.958 6.516a109.89 109.89 0 012.518 7.005m9.923 14.468q-.576-3.161-1.478-6.509a114.902 114.902 0 00-2.06-6.7q-1.152-3.36-2.432-6.527-1.267-3.18-2.562-5.978-1.284-2.804-2.489-5.06c-.798-1.496-1.52-2.756-2.188-3.765a16.15 16.15 0 00-1.862-2.42 6.46 6.46 0 00-1.93-1.449 5.298 5.298 0 00-2.252-.477h-1.973a26.73 26.73 0 00-2.662 3.443q-1.358 2.052-2.715 4.575a98.048 98.048 0 00-2.637 5.287 118.034 118.034 0 00-2.453 5.602q-1.168 2.836-2.125 5.521a110.432 110.432 0 00-1.687 5.023 55.225 55.225 0 00-1.095 4.118 13.873 13.873 0 00-.394 2.804 2.517 2.517 0 00.635 1.923 2.92 2.92 0 002.056.59h2.303c.217-1.087.493-2.231.8-3.459.303-1.222.635-2.419.966-3.602.326-1.194.645-2.268.928-3.23h20.892c.18.636.396 1.366.645 2.198.253.832.506 1.7.767 2.615.254.925.497 1.83.693 2.734a3.215 3.215 0 001.257 2.04 4.902 4.902 0 002.88.704zm-38.375-3.946V68.63a23.044 23.044 0 01-2.488.445c-.937.136-1.947.233-3.023.309a51.871 51.871 0 01-3.227.103h-2.492a21.757 21.757 0 01-5.022-.455 6.274 6.274 0 01-3.098-1.641 6.475 6.475 0 01-1.568-3.183 23.416 23.416 0 01-.436-5.129V39.063a4.998 4.998 0 00-.458-2.353 2.534 2.534 0 00-1.32-1.2 5.231 5.231 0 00-2.032-.333h-2.168v25.277a16.655 16.655 0 001.545 7.586 10.334 10.334 0 004.84 4.725 19.106 19.106 0 008.465 1.636h3.744a25.343 25.343 0 004.5-.329 7.689 7.689 0 002.65-.905 3.157 3.157 0 001.272-1.343 3.97 3.97 0 00.316-1.651"/><path class="cls-3" d="M66.915 70.173V68.63a23.044 23.044 0 01-2.488.445c-.937.136-1.947.233-3.023.309a51.871 51.871 0 01-3.227.103h-2.492a21.757 21.757 0 01-5.022-.455 6.274 6.274 0 01-3.098-1.641 6.475 6.475 0 01-1.568-3.183 23.416 23.416 0 01-.436-5.129V39.063a4.998 4.998 0 00-.458-2.353 2.543 2.543 0 00-1.315-1.2 5.273 5.273 0 00-2.037-.333h-2.168v25.277a16.655 16.655 0 001.545 7.586 10.334 10.334 0 004.84 4.725 19.106 19.106 0 008.465 1.636h3.744a25.343 25.343 0 004.5-.329 7.689 7.689 0 002.65-.905 3.157 3.157 0 001.272-1.343 3.97 3.97 0 00.316-1.651zM105.29 74.12q-.576-3.161-1.478-6.507a115.211 115.211 0 00-2.06-6.703q-1.152-3.36-2.43-6.527-1.27-3.175-2.563-5.978-1.285-2.804-2.488-5.06c-.796-1.493-1.522-2.756-2.19-3.766a16.104 16.104 0 00-1.86-2.42 6.562 6.562 0 00-1.927-1.448 5.323 5.323 0 00-2.256-.474h-1.974a26.484 26.484 0 00-2.662 3.44q-1.358 2.058-2.715 4.575a96.938 96.938 0 00-2.635 5.287 117.431 117.431 0 00-2.455 5.604q-1.168 2.834-2.125 5.52a112.93 112.93 0 00-1.687 5.023 56.065 56.065 0 00-1.095 4.117 13.862 13.862 0 00-.392 2.804 2.509 2.509 0 00.633 1.923 2.898 2.898 0 002.061.59h2.3c.215-1.087.491-2.231.8-3.459.302-1.219.634-2.419.964-3.603.328-1.19.647-2.267.929-3.23h20.893c.178.637.394 1.375.643 2.201.256.83.506 1.698.773 2.613.25.925.491 1.83.686 2.734a3.207 3.207 0 001.258 2.04 4.904 4.904 0 002.881.704z"/><path class="cls-3" d="M95.368 59.656H77.361q1.136-3.593 2.423-6.875a71.17 71.17 0 012.893-6.44 69.428 69.428 0 013.691-6.418q1.932 3.047 3.523 6.207 1.615 3.155 2.957 6.517a109.404 109.404 0 012.52 7.01zM143.991 38.953a7.059 7.059 0 00.198-1.657 1.614 1.614 0 00-.352-.992 2.372 2.372 0 00-.92-.762 2.956 2.956 0 00-1.358-.306h-2.892c-.38 2.06-.9 4.233-1.531 6.506a109.776 109.776 0 01-2.202 6.956 120.86 120.86 0 01-2.65 6.96 122.096 122.096 0 01-2.912 6.51 91.86 91.86 0 01-2.988 5.605 58.388 58.388 0 01-3.07-5.452 97.294 97.294 0 01-2.803-6.2 127.823 127.823 0 01-2.445-6.419q-1.108-3.189-1.957-6.09a81.09 81.09 0 01-1.358-5.234 3.584 3.584 0 00-.965-1.735 4.874 4.874 0 00-1.62-1.058 4.77 4.77 0 00-1.749-.349h-2.629c.592 2.972 1.371 6.043 2.31 9.215q1.428 4.76 3.33 9.528 1.907 4.78 4.256 9.314a80.559 80.559 0 005.082 8.541 6.815 6.815 0 001.993 1.97 3.568 3.568 0 001.884.602h1.512c.787-1.103 1.654-2.487 2.62-4.126a136.81 136.81 0 002.987-5.478c1.04-2.02 2.07-4.137 3.096-6.37q1.55-3.328 2.927-6.747 1.382-3.402 2.465-6.65 1.084-3.25 1.741-6.082zM184.075 74.12q-.581-3.161-1.48-6.507a110.848 110.848 0 00-2.061-6.703q-1.15-3.36-2.429-6.527-1.267-3.175-2.563-5.978-1.285-2.804-2.488-5.06c-.8-1.493-1.525-2.756-2.191-3.766a15.973 15.973 0 00-1.86-2.42 6.646 6.646 0 00-1.928-1.448 5.324 5.324 0 00-2.257-.474h-1.968a26.66 26.66 0 00-2.664 3.44 61.935 61.935 0 00-2.716 4.575 101.03 101.03 0 00-2.638 5.287 126.44 126.44 0 00-2.454 5.604q-1.161 2.833-2.12 5.519a115.61 115.61 0 00-1.69 5.023q-.705 2.33-1.093 4.118a13.613 13.613 0 00-.394 2.804 2.501 2.501 0 00.635 1.923 2.887 2.887 0 002.058.59h2.3c.22-1.087.493-2.231.797-3.459a167.77 167.77 0 011.897-6.833h20.898c.172.637.391 1.375.641 2.201.252.83.508 1.697.769 2.613.25.924.49 1.83.688 2.734a3.18 3.18 0 001.262 2.039 4.88 4.88 0 002.879.705z"/><path class="cls-3" d="M174.151 59.656H156.15q1.13-3.593 2.415-6.875a71.66 71.66 0 012.897-6.44 68.488 68.488 0 013.688-6.418q1.935 3.047 3.524 6.207 1.613 3.156 2.957 6.517c.897 2.233 1.731 4.578 2.52 7.01zM224.808 74.12V37.98a2.526 2.526 0 00-.435-1.43 3.01 3.01 0 00-1.138-.965 3.645 3.645 0 00-1.574-.35h-2.5v32.483a17.526 17.526 0 01-1.806-2.374 43.965 43.965 0 01-1.622-2.748 186.302 186.302 0 00-1.63-2.94l-9.463-16.7a20.105 20.105 0 00-2.972-4.082 12.25 12.25 0 00-3.737-2.712 11.24 11.24 0 00-4.722-.985h-2.89v35.402a4.018 4.018 0 00.446 1.934 2.987 2.987 0 001.185 1.2 3.657 3.657 0 001.714.407h2.498V40.78a13.691 13.691 0 011.596 1.563 18.286 18.286 0 011.6 2.082c.55.798 1.117 1.742 1.73 2.82l9.465 16.643a42.014 42.014 0 003.363 5.094 17.418 17.418 0 003.1 3.127 9.39 9.39 0 002.967 1.573 9.621 9.621 0 002.99.438zM270.474 54.28a19.895 19.895 0 00-1.035-6.512 18.139 18.139 0 00-2.86-5.356 18.404 18.404 0 00-4.343-4.028 19.806 19.806 0 00-5.455-2.547 21.552 21.552 0 00-6.21-.89h-5.585c-.736 0-1.545.041-2.433.1a63.388 63.388 0 00-5.344.63 35.33 35.33 0 00-2.215.416v30.024a7.542 7.542 0 001.28 4.364 8.191 8.191 0 003.842 2.875 16.988 16.988 0 006.314 1.05h4.008a22.245 22.245 0 008.07-1.446 18.621 18.621 0 006.342-4.086 18.371 18.371 0 004.139-6.361 22.002 22.002 0 001.485-8.234z"/><path class="cls-3" d="M264.437 55.08a17.155 17.155 0 01-.99 5.954 13.006 13.006 0 01-2.866 4.623 12.583 12.583 0 01-4.603 2.994 17.107 17.107 0 01-6.197 1.068h-2.433a7.733 7.733 0 01-4.707-1.184 4.531 4.531 0 01-1.6-3.85V40.153c.557-.095 1.172-.177 1.842-.267a43.122 43.122 0 011.966-.178c.648-.05 1.22-.07 1.712-.07h2.562a18.235 18.235 0 018.178 1.678 11.82 11.82 0 015.272 5.105 18.4 18.4 0 011.864 8.658zM308.46 70.06v-1.487q-1.603.402-3.74.736a32.066 32.066 0 01-4.676.352h-3.414a24.856 24.856 0 01-5.652-.535 8.99 8.99 0 01-3.79-1.763 7.036 7.036 0 01-2.124-3.23 15.938 15.938 0 01-.662-4.936v-2.862h15.513a5.729 5.729 0 002.198-.38 2.892 2.892 0 001.273-1.01 2.522 2.522 0 00.401-1.413v-1.658h-19.385c0-1.36.074-2.756.213-4.173.13-1.42.316-2.786.545-4.1.244-1.315.515-2.509.82-3.565h18.534a7.476 7.476 0 002.616-.39 2.718 2.718 0 001.337-.99 2.328 2.328 0 00.385-1.306v-2.117h-23.328a4.793 4.793 0 00-3.538 1.298 9.077 9.077 0 00-2.112 4.134 39.226 39.226 0 00-.57 2.354 53.82 53.82 0 00-.481 2.72 38.364 38.364 0 00-.328 2.801c-.088.936-.135 1.81-.135 2.65v7.035a20.253 20.253 0 001.733 8.9 11.65 11.65 0 005.322 5.434 20.12 20.12 0 009.178 1.843h5.517a25.224 25.224 0 004.379-.303 7.08 7.08 0 002.532-.856 2.91 2.91 0 001.16-1.37 4.953 4.953 0 00.279-1.813zM348.737 74.006v-.286a8.122 8.122 0 01-.695-.83 20.113 20.113 0 01-.762-1.123c-.255-.412-.46-.782-.65-1.133l-4.073-8.35a27.05 27.05 0 00-.897-1.755 11.757 11.757 0 00-1.284-1.887 8.647 8.647 0 00-1.923-1.724 9.893 9.893 0 00-2.859-1.267 16.711 16.711 0 004.041-.991 11.644 11.644 0 003.331-1.983 8.742 8.742 0 002.242-3.01 9.755 9.755 0 00.834-4.08 9.407 9.407 0 00-1.785-5.732 10.954 10.954 0 00-5.015-3.64 21.965 21.965 0 00-7.791-1.268h-4.008c-.895 0-1.861.05-2.886.142a45.738 45.738 0 00-3.102.405c-1.041.159-2.015.352-2.935.561a23.084 23.084 0 00-2.379.665v34.083a3.185 3.185 0 00.946 2.48 4.26 4.26 0 002.868.838h2.235V57.022c.515.098 1.183.19 2.007.295a60.97 60.97 0 002.668.285q1.447.128 2.879.221a8.411 8.411 0 011.953.293 5.294 5.294 0 011.795.916 8.477 8.477 0 011.793 1.955 23.981 23.981 0 011.953 3.411l3.35 6.978a4.753 4.753 0 001.877 2.183 5.794 5.794 0 003.05.73c.22 0 .516-.017.868-.044.345-.029.701-.056 1.062-.094.36-.04.666-.067.902-.097.244-.026.374-.048.39-.048z"/><path class="cls-3" d="M339.997 46.384a5.862 5.862 0 01-.857 3.164 6.467 6.467 0 01-2.23 2.108 10.965 10.965 0 01-3.124 1.172 16.693 16.693 0 01-3.512.361c-1.286 0-2.586-.044-3.922-.134a59.427 59.427 0 01-4.162-.439V40.154a32.116 32.116 0 012.869-.468 22.674 22.674 0 012.583-.163h3.348a16.607 16.607 0 013.464.325 8.505 8.505 0 012.868 1.113 5.478 5.478 0 011.95 2.106 7.103 7.103 0 01.725 3.317zM361.88 74.12V37.863a2.306 2.306 0 00-.484-1.374 3.373 3.373 0 00-1.204-.925 3.743 3.743 0 00-1.536-.332h-2.893v35.059a4.414 4.414 0 00.516 2.188 2.977 2.977 0 001.38 1.24 4.93 4.93 0 002.048.399zM405.702 74.12q-.572-3.162-1.475-6.51a111.376 111.376 0 00-2.064-6.7q-1.15-3.36-2.436-6.53-1.259-3.175-2.556-5.975-1.282-2.803-2.49-5.06c-.797-1.496-1.516-2.755-2.188-3.765a15.658 15.658 0 00-1.863-2.425 6.523 6.523 0 00-1.926-1.445 5.33 5.33 0 00-2.256-.476h-1.97a26.412 26.412 0 00-2.662 3.439c-.907 1.373-1.804 2.9-2.715 4.576q-1.352 2.518-2.641 5.29a119.464 119.464 0 00-2.448 5.601q-1.176 2.838-2.128 5.52a112.085 112.085 0 00-1.684 5.026 54.914 54.914 0 00-1.097 4.116 13.553 13.553 0 00-.391 2.806 2.472 2.472 0 00.634 1.922 2.91 2.91 0 002.056.59h2.304c.217-1.087.49-2.23.795-3.459.307-1.221.635-2.422.965-3.602.33-1.194.643-2.273.926-3.234h20.902c.174.64.39 1.37.642 2.201s.505 1.7.77 2.616c.248.922.489 1.829.692 2.734a3.146 3.146 0 001.256 2.037 4.892 4.892 0 002.88.706z"/><path class="cls-3" d="M395.778 59.652h-18q1.134-3.589 2.418-6.873a71.603 71.603 0 012.891-6.444 69.408 69.408 0 013.695-6.412q1.928 3.047 3.52 6.203 1.613 3.161 2.955 6.52a107.98 107.98 0 012.521 7.006z"/></g></g></svg>